<svg width="48" height="48" viewBox="0 0 48 48" fill="none" xmlns="http://www.w3.org/2000/svg">
<mask id="path-1-inside-1_171_314" fill="white">
<path d="M0 23.9914C0 10.7413 10.7413 0 23.9914 0C37.2415 0 47.9828 10.7413 47.9828 23.9914C47.9828 37.2415 37.2415 47.9828 23.9914 47.9828C10.7413 47.9828 0 37.2415 0 23.9914Z"/>
</mask>
<path d="M0 23.9914C0 10.7413 10.7413 0 23.9914 0C37.2415 0 47.9828 10.7413 47.9828 23.9914C47.9828 37.2415 37.2415 47.9828 23.9914 47.9828C10.7413 47.9828 0 37.2415 0 23.9914Z" fill="white" fill-opacity="0.25"/>
<path d="M0 23.9914M47.9828 23.9914M47.9828 23.9914M0 23.9914M23.9914 0M47.9828 23.9914M23.9914 47.9828M0 23.9914M23.9914 47.9828V46.738C11.4288 46.738 1.24479 36.554 1.24479 23.9914H0H-1.24479C-1.24479 37.929 10.0538 49.2276 23.9914 49.2276V47.9828ZM47.9828 23.9914H46.738C46.738 36.554 36.554 46.738 23.9914 46.738V47.9828V49.2276C37.929 49.2276 49.2276 37.929 49.2276 23.9914H47.9828ZM23.9914 0V1.24479C36.554 1.24479 46.738 11.4288 46.738 23.9914H47.9828H49.2276C49.2276 10.0538 37.929 -1.24479 23.9914 -1.24479V0ZM23.9914 0V-1.24479C10.0538 -1.24479 -1.24479 10.0538 -1.24479 23.9914H0H1.24479C1.24479 11.4288 11.4288 1.24479 23.9914 1.24479V0Z" fill="white" fill-opacity="0.15" mask="url(#path-1-inside-1_171_314)"/>
<g clip-path="url(#clip0_171_314)">
<path d="M18.0223 23.9914H29.9603M29.9603 23.9914L23.9913 18.0225M29.9603 23.9914L23.9913 29.9604" stroke="white" stroke-width="2.0465" stroke-linecap="round" stroke-linejoin="round"/>
</g>
<defs>
<clipPath id="clip0_171_314">
<rect width="13.9845" height="13.9845" fill="white" transform="translate(16.9991 16.999)"/>
</clipPath>
</defs>
</svg>
